<mxfile host="app.diagrams.net" modified="2023-07-29T10:47:48.405Z" agent="Mozilla/5.0 (Windows NT 10.0; Win64; x64) AppleWebKit/537.36 (KHTML, like Gecko) Chrome/115.0.0.0 Safari/537.36" etag="5HvdGBg7YElYl_wOp6Vr" version="21.6.5" type="device">
  <diagram name="Page-1" id="J5KcN7PtZEJglVE05x8_">
    <mxGraphModel dx="1985" dy="2240" grid="1" gridSize="10" guides="1" tooltips="1" connect="1" arrows="1" fold="1" page="1" pageScale="1" pageWidth="850" pageHeight="1100" math="0" shadow="0">
      <root>
        <mxCell id="0" />
        <mxCell id="1" parent="0" />
        <mxCell id="qbITzLu7dDVjl9360QOB-1" value="" style="rounded=0;whiteSpace=wrap;html=1;" parent="1" vertex="1">
          <mxGeometry x="210" y="170" width="100" height="50" as="geometry" />
        </mxCell>
        <mxCell id="qbITzLu7dDVjl9360QOB-2" value="" style="rounded=0;whiteSpace=wrap;html=1;" parent="1" vertex="1">
          <mxGeometry x="880" y="170" width="100" height="50" as="geometry" />
        </mxCell>
        <mxCell id="qbITzLu7dDVjl9360QOB-3" value="" style="endArrow=none;html=1;rounded=0;" parent="1" edge="1">
          <mxGeometry width="50" height="50" relative="1" as="geometry">
            <mxPoint x="250" y="170" as="sourcePoint" />
            <mxPoint x="250" as="targetPoint" />
          </mxGeometry>
        </mxCell>
        <mxCell id="qbITzLu7dDVjl9360QOB-4" value="" style="endArrow=none;html=1;rounded=0;exitX=0.5;exitY=0;exitDx=0;exitDy=0;" parent="1" source="qbITzLu7dDVjl9360QOB-1" edge="1">
          <mxGeometry width="50" height="50" relative="1" as="geometry">
            <mxPoint x="280" y="160" as="sourcePoint" />
            <mxPoint x="270" y="70" as="targetPoint" />
            <Array as="points">
              <mxPoint x="260" y="170" />
            </Array>
          </mxGeometry>
        </mxCell>
        <mxCell id="qbITzLu7dDVjl9360QOB-5" value="" style="endArrow=none;html=1;rounded=0;exitX=0.361;exitY=-0.138;exitDx=0;exitDy=0;exitPerimeter=0;entryX=0.398;entryY=1.196;entryDx=0;entryDy=0;entryPerimeter=0;" parent="1" source="qbITzLu7dDVjl9360QOB-1" target="qbITzLu7dDVjl9360QOB-17" edge="1">
          <mxGeometry width="50" height="50" relative="1" as="geometry">
            <mxPoint x="260" y="180" as="sourcePoint" />
            <mxPoint x="190" y="80" as="targetPoint" />
          </mxGeometry>
        </mxCell>
        <mxCell id="qbITzLu7dDVjl9360QOB-7" value="" style="endArrow=none;html=1;rounded=0;exitX=0.5;exitY=0;exitDx=0;exitDy=0;" parent="1" source="qbITzLu7dDVjl9360QOB-1" edge="1">
          <mxGeometry width="50" height="50" relative="1" as="geometry">
            <mxPoint x="270" y="180" as="sourcePoint" />
            <mxPoint x="300" y="80" as="targetPoint" />
            <Array as="points">
              <mxPoint x="260" y="170" />
            </Array>
          </mxGeometry>
        </mxCell>
        <mxCell id="qbITzLu7dDVjl9360QOB-8" value="" style="endArrow=none;html=1;rounded=0;exitX=0.424;exitY=-0.025;exitDx=0;exitDy=0;exitPerimeter=0;" parent="1" source="qbITzLu7dDVjl9360QOB-1" edge="1">
          <mxGeometry width="50" height="50" relative="1" as="geometry">
            <mxPoint x="250" y="160" as="sourcePoint" />
            <mxPoint x="430" y="30" as="targetPoint" />
          </mxGeometry>
        </mxCell>
        <mxCell id="qbITzLu7dDVjl9360QOB-9" value="" style="endArrow=none;html=1;rounded=0;exitX=0.431;exitY=-0.095;exitDx=0;exitDy=0;exitPerimeter=0;" parent="1" source="qbITzLu7dDVjl9360QOB-1" edge="1">
          <mxGeometry width="50" height="50" relative="1" as="geometry">
            <mxPoint x="290" y="200" as="sourcePoint" />
            <mxPoint x="380" y="110" as="targetPoint" />
          </mxGeometry>
        </mxCell>
        <mxCell id="qbITzLu7dDVjl9360QOB-10" value="" style="endArrow=none;html=1;rounded=0;entryX=0.5;entryY=1;entryDx=0;entryDy=0;" parent="1" target="qbITzLu7dDVjl9360QOB-16" edge="1">
          <mxGeometry width="50" height="50" relative="1" as="geometry">
            <mxPoint x="250" y="160" as="sourcePoint" />
            <mxPoint x="210" y="60" as="targetPoint" />
          </mxGeometry>
        </mxCell>
        <mxCell id="qbITzLu7dDVjl9360QOB-11" value="" style="endArrow=none;html=1;rounded=0;exitX=0.431;exitY=-0.067;exitDx=0;exitDy=0;exitPerimeter=0;" parent="1" source="qbITzLu7dDVjl9360QOB-1" edge="1">
          <mxGeometry width="50" height="50" relative="1" as="geometry">
            <mxPoint x="310" y="220" as="sourcePoint" />
            <mxPoint x="160" y="100" as="targetPoint" />
            <Array as="points">
              <mxPoint x="160" y="100" />
              <mxPoint x="150" y="100" />
            </Array>
          </mxGeometry>
        </mxCell>
        <mxCell id="qbITzLu7dDVjl9360QOB-12" value="" style="endArrow=none;html=1;rounded=0;exitX=0.382;exitY=-0.152;exitDx=0;exitDy=0;exitPerimeter=0;entryX=0.555;entryY=1.226;entryDx=0;entryDy=0;entryPerimeter=0;" parent="1" source="qbITzLu7dDVjl9360QOB-1" target="qbITzLu7dDVjl9360QOB-14" edge="1">
          <mxGeometry width="50" height="50" relative="1" as="geometry">
            <mxPoint x="263" y="177" as="sourcePoint" />
            <mxPoint x="140" y="130" as="targetPoint" />
          </mxGeometry>
        </mxCell>
        <mxCell id="qbITzLu7dDVjl9360QOB-13" value="" style="endArrow=none;html=1;rounded=0;exitX=0.466;exitY=-0.138;exitDx=0;exitDy=0;exitPerimeter=0;" parent="1" source="qbITzLu7dDVjl9360QOB-1" edge="1">
          <mxGeometry width="50" height="50" relative="1" as="geometry">
            <mxPoint x="263" y="175" as="sourcePoint" />
            <mxPoint x="350" y="40" as="targetPoint" />
          </mxGeometry>
        </mxCell>
        <mxCell id="qbITzLu7dDVjl9360QOB-14" value="" style="ellipse;whiteSpace=wrap;html=1;rotation=-60;" parent="1" vertex="1">
          <mxGeometry x="70" y="133.25" width="83.86" height="36.75" as="geometry" />
        </mxCell>
        <mxCell id="qbITzLu7dDVjl9360QOB-15" value="" style="ellipse;whiteSpace=wrap;html=1;rotation=-30;" parent="1" vertex="1">
          <mxGeometry x="98.92" y="65.97" width="70" height="36.75" as="geometry" />
        </mxCell>
        <mxCell id="qbITzLu7dDVjl9360QOB-16" value="" style="ellipse;whiteSpace=wrap;html=1;rotation=-15;" parent="1" vertex="1">
          <mxGeometry x="180" y="10" width="53.86" height="36.75" as="geometry" />
        </mxCell>
        <mxCell id="qbITzLu7dDVjl9360QOB-17" value="" style="ellipse;whiteSpace=wrap;html=1;rotation=-30;" parent="1" vertex="1">
          <mxGeometry x="118.25" y="-16.54" width="80" height="36.75" as="geometry" />
        </mxCell>
        <mxCell id="qbITzLu7dDVjl9360QOB-18" value="" style="ellipse;whiteSpace=wrap;html=1;rotation=15;" parent="1" vertex="1">
          <mxGeometry x="220" y="-37" width="80" height="36.75" as="geometry" />
        </mxCell>
        <mxCell id="qbITzLu7dDVjl9360QOB-19" value="" style="ellipse;whiteSpace=wrap;html=1;rotation=15;" parent="1" vertex="1">
          <mxGeometry x="256.14" y="40" width="53.86" height="36.75" as="geometry" />
        </mxCell>
        <mxCell id="qbITzLu7dDVjl9360QOB-20" value="" style="ellipse;whiteSpace=wrap;html=1;rotation=15;" parent="1" vertex="1">
          <mxGeometry x="320" y="3.25" width="80" height="36.75" as="geometry" />
        </mxCell>
        <mxCell id="qbITzLu7dDVjl9360QOB-21" value="" style="ellipse;whiteSpace=wrap;html=1;rotation=55;" parent="1" vertex="1">
          <mxGeometry x="360" y="96.75" width="80" height="36.75" as="geometry" />
        </mxCell>
        <mxCell id="qbITzLu7dDVjl9360QOB-22" value="" style="ellipse;whiteSpace=wrap;html=1;rotation=40;" parent="1" vertex="1">
          <mxGeometry x="410" y="-6.59" width="80" height="36.75" as="geometry" />
        </mxCell>
        <mxCell id="qbITzLu7dDVjl9360QOB-23" value="" style="endArrow=none;html=1;rounded=0;entryX=0.5;entryY=1;entryDx=0;entryDy=0;" parent="1" target="qbITzLu7dDVjl9360QOB-26" edge="1">
          <mxGeometry width="50" height="50" relative="1" as="geometry">
            <mxPoint x="934" y="160" as="sourcePoint" />
            <mxPoint x="730" y="70" as="targetPoint" />
          </mxGeometry>
        </mxCell>
        <mxCell id="qbITzLu7dDVjl9360QOB-26" value="" style="ellipse;whiteSpace=wrap;html=1;rotation=15;" parent="1" vertex="1">
          <mxGeometry x="951.45" y="-69.57" width="104.68" height="61.81" as="geometry" />
        </mxCell>
        <mxCell id="qbITzLu7dDVjl9360QOB-29" value="" style="ellipse;whiteSpace=wrap;html=1;rotation=-15;" parent="1" vertex="1">
          <mxGeometry x="800" y="-70.19" width="104.68" height="69.94" as="geometry" />
        </mxCell>
        <mxCell id="qbITzLu7dDVjl9360QOB-30" style="edgeStyle=orthogonalEdgeStyle;rounded=0;orthogonalLoop=1;jettySize=auto;html=1;exitX=0.5;exitY=0;exitDx=0;exitDy=0;entryX=0.414;entryY=0.069;entryDx=0;entryDy=0;entryPerimeter=0;" parent="1" source="qbITzLu7dDVjl9360QOB-26" target="qbITzLu7dDVjl9360QOB-26" edge="1">
          <mxGeometry relative="1" as="geometry" />
        </mxCell>
        <mxCell id="qbITzLu7dDVjl9360QOB-31" value="" style="rounded=0;whiteSpace=wrap;html=1;" parent="1" vertex="1">
          <mxGeometry x="500" y="290" width="160" height="70" as="geometry" />
        </mxCell>
        <mxCell id="qbITzLu7dDVjl9360QOB-32" value="" style="endArrow=none;html=1;rounded=0;exitX=0.413;exitY=1.125;exitDx=0;exitDy=0;exitPerimeter=0;" parent="1" source="qbITzLu7dDVjl9360QOB-1" target="qbITzLu7dDVjl9360QOB-33" edge="1">
          <mxGeometry width="50" height="50" relative="1" as="geometry">
            <mxPoint x="600" y="230" as="sourcePoint" />
            <mxPoint x="250" y="300" as="targetPoint" />
          </mxGeometry>
        </mxCell>
        <mxCell id="qbITzLu7dDVjl9360QOB-33" value="" style="rhombus;whiteSpace=wrap;html=1;" parent="1" vertex="1">
          <mxGeometry x="210" y="290" width="80" height="80" as="geometry" />
        </mxCell>
        <mxCell id="qbITzLu7dDVjl9360QOB-36" value="" style="endArrow=none;html=1;rounded=0;exitX=0.413;exitY=1.125;exitDx=0;exitDy=0;exitPerimeter=0;" parent="1" target="qbITzLu7dDVjl9360QOB-37" edge="1">
          <mxGeometry width="50" height="50" relative="1" as="geometry">
            <mxPoint x="941" y="220" as="sourcePoint" />
            <mxPoint x="940" y="294" as="targetPoint" />
          </mxGeometry>
        </mxCell>
        <mxCell id="qbITzLu7dDVjl9360QOB-37" value="" style="rhombus;whiteSpace=wrap;html=1;" parent="1" vertex="1">
          <mxGeometry x="890" y="267" width="100" height="116" as="geometry" />
        </mxCell>
        <mxCell id="qbITzLu7dDVjl9360QOB-38" value="" style="endArrow=none;html=1;rounded=0;exitX=1;exitY=0.5;exitDx=0;exitDy=0;entryX=0;entryY=0.5;entryDx=0;entryDy=0;" parent="1" source="qbITzLu7dDVjl9360QOB-33" target="qbITzLu7dDVjl9360QOB-31" edge="1">
          <mxGeometry width="50" height="50" relative="1" as="geometry">
            <mxPoint x="600" y="230" as="sourcePoint" />
            <mxPoint x="540" y="300" as="targetPoint" />
          </mxGeometry>
        </mxCell>
        <mxCell id="qbITzLu7dDVjl9360QOB-39" value="" style="endArrow=none;html=1;rounded=0;exitX=1;exitY=0.5;exitDx=0;exitDy=0;entryX=0;entryY=0.5;entryDx=0;entryDy=0;" parent="1" target="qbITzLu7dDVjl9360QOB-37" edge="1">
          <mxGeometry width="50" height="50" relative="1" as="geometry">
            <mxPoint x="660" y="319.76" as="sourcePoint" />
            <mxPoint x="930" y="319.38" as="targetPoint" />
          </mxGeometry>
        </mxCell>
        <mxCell id="qbITzLu7dDVjl9360QOB-44" value="&lt;u&gt;username&lt;/u&gt;" style="text;html=1;strokeColor=none;fillColor=none;align=center;verticalAlign=middle;whiteSpace=wrap;rounded=0;rotation=-60;" parent="1" vertex="1">
          <mxGeometry x="81.93" y="133.25" width="60" height="30" as="geometry" />
        </mxCell>
        <mxCell id="qbITzLu7dDVjl9360QOB-45" value="&lt;u&gt;id&lt;/u&gt;" style="text;html=1;strokeColor=none;fillColor=none;align=center;verticalAlign=middle;whiteSpace=wrap;rounded=0;" parent="1" vertex="1">
          <mxGeometry x="176.93" y="13.379999999999995" width="60" height="30" as="geometry" />
        </mxCell>
        <mxCell id="qbITzLu7dDVjl9360QOB-46" value="about" style="text;html=1;strokeColor=none;fillColor=none;align=center;verticalAlign=middle;whiteSpace=wrap;rounded=0;" parent="1" vertex="1">
          <mxGeometry x="256.14" y="43.38" width="60" height="30" as="geometry" />
        </mxCell>
        <mxCell id="qbITzLu7dDVjl9360QOB-47" value="firstName" style="text;html=1;strokeColor=none;fillColor=none;align=center;verticalAlign=middle;whiteSpace=wrap;rounded=0;rotation=-30;" parent="1" vertex="1">
          <mxGeometry x="103.91999999999999" y="69.35" width="60" height="30" as="geometry" />
        </mxCell>
        <mxCell id="qbITzLu7dDVjl9360QOB-48" value="lastName" style="text;html=1;strokeColor=none;fillColor=none;align=center;verticalAlign=middle;whiteSpace=wrap;rounded=0;rotation=-30;" parent="1" vertex="1">
          <mxGeometry x="128.25" y="-16.540000000000006" width="60" height="30" as="geometry" />
        </mxCell>
        <mxCell id="qbITzLu7dDVjl9360QOB-49" value="password" style="text;html=1;strokeColor=none;fillColor=none;align=center;verticalAlign=middle;whiteSpace=wrap;rounded=0;rotation=15;" parent="1" vertex="1">
          <mxGeometry x="230" y="-37.75999999999999" width="60" height="30" as="geometry" />
        </mxCell>
        <mxCell id="qbITzLu7dDVjl9360QOB-50" value="phone" style="text;html=1;strokeColor=none;fillColor=none;align=center;verticalAlign=middle;whiteSpace=wrap;rounded=0;rotation=50;" parent="1" vertex="1">
          <mxGeometry x="370" y="96.75" width="60" height="30" as="geometry" />
        </mxCell>
        <mxCell id="qbITzLu7dDVjl9360QOB-51" value="email" style="text;html=1;strokeColor=none;fillColor=none;align=center;verticalAlign=middle;whiteSpace=wrap;rounded=0;" parent="1" vertex="1">
          <mxGeometry x="330" y="3.25" width="60" height="30" as="geometry" />
        </mxCell>
        <mxCell id="qbITzLu7dDVjl9360QOB-52" value="enable" style="text;html=1;strokeColor=none;fillColor=none;align=center;verticalAlign=middle;whiteSpace=wrap;rounded=0;rotation=45;" parent="1" vertex="1">
          <mxGeometry x="420" y="-6.590000000000003" width="60" height="30" as="geometry" />
        </mxCell>
        <mxCell id="qbITzLu7dDVjl9360QOB-53" value="USER" style="text;html=1;strokeColor=none;fillColor=none;align=center;verticalAlign=middle;whiteSpace=wrap;rounded=0;" parent="1" vertex="1">
          <mxGeometry x="220" y="180" width="60" height="30" as="geometry" />
        </mxCell>
        <mxCell id="qbITzLu7dDVjl9360QOB-54" value="" style="endArrow=none;html=1;rounded=0;exitX=0.503;exitY=-0.17;exitDx=0;exitDy=0;exitPerimeter=0;entryX=0.716;entryY=1.036;entryDx=0;entryDy=0;entryPerimeter=0;" parent="1" source="qbITzLu7dDVjl9360QOB-2" target="qbITzLu7dDVjl9360QOB-29" edge="1">
          <mxGeometry width="50" height="50" relative="1" as="geometry">
            <mxPoint x="256" y="173" as="sourcePoint" />
            <mxPoint x="174" y="38" as="targetPoint" />
          </mxGeometry>
        </mxCell>
        <mxCell id="qbITzLu7dDVjl9360QOB-55" value="&lt;u&gt;roleId&lt;/u&gt;" style="text;html=1;strokeColor=none;fillColor=none;align=center;verticalAlign=middle;whiteSpace=wrap;rounded=0;" parent="1" vertex="1">
          <mxGeometry x="822.3399999999999" y="-50.22" width="60" height="30" as="geometry" />
        </mxCell>
        <mxCell id="qbITzLu7dDVjl9360QOB-56" value="role" style="text;html=1;strokeColor=none;fillColor=none;align=center;verticalAlign=middle;whiteSpace=wrap;rounded=0;" parent="1" vertex="1">
          <mxGeometry x="963.79" y="-46.54" width="80" height="30" as="geometry" />
        </mxCell>
        <mxCell id="qbITzLu7dDVjl9360QOB-62" value="ROLE" style="text;html=1;strokeColor=none;fillColor=none;align=center;verticalAlign=middle;whiteSpace=wrap;rounded=0;" parent="1" vertex="1">
          <mxGeometry x="900" y="180" width="60" height="30" as="geometry" />
        </mxCell>
        <mxCell id="qbITzLu7dDVjl9360QOB-63" value="USER_ROLE" style="text;html=1;strokeColor=none;fillColor=none;align=center;verticalAlign=middle;whiteSpace=wrap;rounded=0;" parent="1" vertex="1">
          <mxGeometry x="550" y="310" width="60" height="30" as="geometry" />
        </mxCell>
        <mxCell id="qbITzLu7dDVjl9360QOB-64" value="1" style="text;html=1;strokeColor=none;fillColor=none;align=center;verticalAlign=middle;whiteSpace=wrap;rounded=0;" parent="1" vertex="1">
          <mxGeometry x="196.14" y="250" width="60" height="30" as="geometry" />
        </mxCell>
        <mxCell id="qbITzLu7dDVjl9360QOB-65" value="1" style="text;html=1;strokeColor=none;fillColor=none;align=center;verticalAlign=middle;whiteSpace=wrap;rounded=0;" parent="1" vertex="1">
          <mxGeometry x="882.34" y="237" width="60" height="30" as="geometry" />
        </mxCell>
        <mxCell id="qbITzLu7dDVjl9360QOB-66" value="has" style="text;html=1;strokeColor=none;fillColor=none;align=center;verticalAlign=middle;whiteSpace=wrap;rounded=0;" parent="1" vertex="1">
          <mxGeometry x="220" y="315" width="60" height="30" as="geometry" />
        </mxCell>
        <mxCell id="qbITzLu7dDVjl9360QOB-67" value="`" style="text;html=1;strokeColor=none;fillColor=none;align=center;verticalAlign=middle;whiteSpace=wrap;rounded=0;" parent="1" vertex="1">
          <mxGeometry x="910" y="310" width="60" height="30" as="geometry" />
        </mxCell>
        <mxCell id="qbITzLu7dDVjl9360QOB-68" value="n" style="text;html=1;strokeColor=none;fillColor=none;align=center;verticalAlign=middle;whiteSpace=wrap;rounded=0;" parent="1" vertex="1">
          <mxGeometry x="365" y="300" width="60" height="30" as="geometry" />
        </mxCell>
        <mxCell id="qbITzLu7dDVjl9360QOB-69" value="n" style="text;html=1;strokeColor=none;fillColor=none;align=center;verticalAlign=middle;whiteSpace=wrap;rounded=0;" parent="1" vertex="1">
          <mxGeometry x="740" y="285" width="60" height="30" as="geometry" />
        </mxCell>
        <mxCell id="b-1dguzacvtt7dFU3J7i-2" value="" style="rounded=0;whiteSpace=wrap;html=1;" parent="1" vertex="1">
          <mxGeometry x="380" y="-590" width="180" height="70" as="geometry" />
        </mxCell>
        <mxCell id="b-1dguzacvtt7dFU3J7i-3" value="" style="ellipse;whiteSpace=wrap;html=1;rotation=-30;" parent="1" vertex="1">
          <mxGeometry x="220" y="-810" width="120" height="80" as="geometry" />
        </mxCell>
        <mxCell id="b-1dguzacvtt7dFU3J7i-4" value="" style="endArrow=none;html=1;rounded=0;entryX=0.5;entryY=1;entryDx=0;entryDy=0;" parent="1" target="b-1dguzacvtt7dFU3J7i-3" edge="1">
          <mxGeometry width="50" height="50" relative="1" as="geometry">
            <mxPoint x="450" y="-600" as="sourcePoint" />
            <mxPoint x="850" y="-650" as="targetPoint" />
          </mxGeometry>
        </mxCell>
        <mxCell id="b-1dguzacvtt7dFU3J7i-5" value="" style="ellipse;whiteSpace=wrap;html=1;rotation=0;" parent="1" vertex="1">
          <mxGeometry x="370" y="-870" width="120" height="80" as="geometry" />
        </mxCell>
        <mxCell id="b-1dguzacvtt7dFU3J7i-6" value="" style="endArrow=none;html=1;rounded=0;exitX=0.385;exitY=-0.046;exitDx=0;exitDy=0;exitPerimeter=0;entryX=0.5;entryY=1;entryDx=0;entryDy=0;" parent="1" source="b-1dguzacvtt7dFU3J7i-2" target="b-1dguzacvtt7dFU3J7i-5" edge="1">
          <mxGeometry width="50" height="50" relative="1" as="geometry">
            <mxPoint x="800" y="-600" as="sourcePoint" />
            <mxPoint x="850" y="-650" as="targetPoint" />
          </mxGeometry>
        </mxCell>
        <mxCell id="b-1dguzacvtt7dFU3J7i-7" value="" style="ellipse;whiteSpace=wrap;html=1;rotation=15;" parent="1" vertex="1">
          <mxGeometry x="509.83" y="-828.71" width="130" height="80" as="geometry" />
        </mxCell>
        <mxCell id="b-1dguzacvtt7dFU3J7i-8" value="" style="endArrow=none;html=1;rounded=0;exitX=0.365;exitY=-0.029;exitDx=0;exitDy=0;exitPerimeter=0;entryX=0.5;entryY=1;entryDx=0;entryDy=0;" parent="1" source="b-1dguzacvtt7dFU3J7i-2" target="b-1dguzacvtt7dFU3J7i-7" edge="1">
          <mxGeometry width="50" height="50" relative="1" as="geometry">
            <mxPoint x="800" y="-600" as="sourcePoint" />
            <mxPoint x="850" y="-650" as="targetPoint" />
          </mxGeometry>
        </mxCell>
        <mxCell id="b-1dguzacvtt7dFU3J7i-9" value="&lt;u&gt;&lt;font style=&quot;font-size: 18px;&quot;&gt;id&lt;/font&gt;&lt;/u&gt;" style="text;html=1;strokeColor=none;fillColor=none;align=center;verticalAlign=middle;whiteSpace=wrap;rounded=0;" parent="1" vertex="1">
          <mxGeometry x="240" y="-785" width="60" height="30" as="geometry" />
        </mxCell>
        <mxCell id="b-1dguzacvtt7dFU3J7i-11" value="&lt;font style=&quot;font-size: 18px;&quot;&gt;title&lt;/font&gt;" style="text;html=1;strokeColor=none;fillColor=none;align=center;verticalAlign=middle;whiteSpace=wrap;rounded=0;" parent="1" vertex="1">
          <mxGeometry x="400" y="-845" width="60" height="30" as="geometry" />
        </mxCell>
        <mxCell id="b-1dguzacvtt7dFU3J7i-12" value="&lt;font style=&quot;font-size: 18px;&quot;&gt;description&lt;/font&gt;" style="text;html=1;strokeColor=none;fillColor=none;align=center;verticalAlign=middle;whiteSpace=wrap;rounded=0;" parent="1" vertex="1">
          <mxGeometry x="544.83" y="-803.71" width="60" height="30" as="geometry" />
        </mxCell>
        <mxCell id="b-1dguzacvtt7dFU3J7i-13" value="" style="rounded=0;whiteSpace=wrap;html=1;" parent="1" vertex="1">
          <mxGeometry x="951.45" y="-600" width="180" height="70" as="geometry" />
        </mxCell>
        <mxCell id="b-1dguzacvtt7dFU3J7i-16" value="&lt;font style=&quot;font-size: 24px;&quot;&gt;&lt;u&gt;cid&lt;/u&gt;&lt;/font&gt;" style="ellipse;whiteSpace=wrap;html=1;rotation=-30;" parent="1" vertex="1">
          <mxGeometry x="823.84" y="-795.67" width="100" height="70" as="geometry" />
        </mxCell>
        <mxCell id="b-1dguzacvtt7dFU3J7i-17" value="" style="endArrow=none;html=1;rounded=0;entryX=0.5;entryY=1;entryDx=0;entryDy=0;" parent="1" target="b-1dguzacvtt7dFU3J7i-16" edge="1">
          <mxGeometry width="50" height="50" relative="1" as="geometry">
            <mxPoint x="1050" y="-600" as="sourcePoint" />
            <mxPoint x="1450" y="-650" as="targetPoint" />
          </mxGeometry>
        </mxCell>
        <mxCell id="b-1dguzacvtt7dFU3J7i-18" value="" style="endArrow=none;html=1;rounded=0;exitX=0.385;exitY=-0.046;exitDx=0;exitDy=0;exitPerimeter=0;entryX=0.409;entryY=1.028;entryDx=0;entryDy=0;entryPerimeter=0;" parent="1" target="b-1dguzacvtt7dFU3J7i-23" edge="1">
          <mxGeometry width="50" height="50" relative="1" as="geometry">
            <mxPoint x="1049" y="-593" as="sourcePoint" />
            <mxPoint x="1030" y="-790" as="targetPoint" />
          </mxGeometry>
        </mxCell>
        <mxCell id="b-1dguzacvtt7dFU3J7i-19" value="" style="ellipse;whiteSpace=wrap;html=1;rotation=15;" parent="1" vertex="1">
          <mxGeometry x="1129.66" y="-826.1" width="109.83" height="80" as="geometry" />
        </mxCell>
        <mxCell id="b-1dguzacvtt7dFU3J7i-20" value="" style="endArrow=none;html=1;rounded=0;exitX=0.365;exitY=-0.029;exitDx=0;exitDy=0;exitPerimeter=0;entryX=0.5;entryY=1;entryDx=0;entryDy=0;" parent="1" target="b-1dguzacvtt7dFU3J7i-19" edge="1">
          <mxGeometry width="50" height="50" relative="1" as="geometry">
            <mxPoint x="1046" y="-592" as="sourcePoint" />
            <mxPoint x="1450" y="-650" as="targetPoint" />
          </mxGeometry>
        </mxCell>
        <mxCell id="b-1dguzacvtt7dFU3J7i-22" value="&lt;font style=&quot;font-size: 18px;&quot;&gt;description&lt;/font&gt;" style="text;html=1;strokeColor=none;fillColor=none;align=center;verticalAlign=middle;whiteSpace=wrap;rounded=0;rotation=20;" parent="1" vertex="1">
          <mxGeometry x="1154.58" y="-803.71" width="60" height="30" as="geometry" />
        </mxCell>
        <mxCell id="b-1dguzacvtt7dFU3J7i-23" value="" style="ellipse;whiteSpace=wrap;html=1;rotation=0;" parent="1" vertex="1">
          <mxGeometry x="923.8399999999999" y="-828.71" width="106.21" height="66.29" as="geometry" />
        </mxCell>
        <mxCell id="b-1dguzacvtt7dFU3J7i-24" value="&lt;font style=&quot;font-size: 18px;&quot;&gt;active&lt;/font&gt;" style="text;html=1;strokeColor=none;fillColor=none;align=center;verticalAlign=middle;whiteSpace=wrap;rounded=0;" parent="1" vertex="1">
          <mxGeometry x="946.9399999999998" y="-815" width="60" height="30" as="geometry" />
        </mxCell>
        <mxCell id="b-1dguzacvtt7dFU3J7i-31" value="" style="ellipse;whiteSpace=wrap;html=1;rotation=0;" parent="1" vertex="1">
          <mxGeometry x="1009.9999999999999" y="-881.2900000000001" width="106.21" height="66.29" as="geometry" />
        </mxCell>
        <mxCell id="b-1dguzacvtt7dFU3J7i-32" value="&lt;font style=&quot;font-size: 18px;&quot;&gt;&lt;u&gt;gid&lt;/u&gt;&lt;/font&gt;" style="text;html=1;strokeColor=none;fillColor=none;align=center;verticalAlign=middle;whiteSpace=wrap;rounded=0;" parent="1" vertex="1">
          <mxGeometry x="1033.1" y="-867.58" width="60" height="30" as="geometry" />
        </mxCell>
        <mxCell id="b-1dguzacvtt7dFU3J7i-33" value="" style="ellipse;whiteSpace=wrap;html=1;rotation=0;" parent="1" vertex="1">
          <mxGeometry x="1116.21" y="-936.2900000000001" width="106.21" height="66.29" as="geometry" />
        </mxCell>
        <mxCell id="b-1dguzacvtt7dFU3J7i-34" value="&lt;font style=&quot;font-size: 18px;&quot;&gt;maxMarks&lt;/font&gt;" style="text;html=1;strokeColor=none;fillColor=none;align=center;verticalAlign=middle;whiteSpace=wrap;rounded=0;" parent="1" vertex="1">
          <mxGeometry x="1139.31" y="-922.58" width="60" height="30" as="geometry" />
        </mxCell>
        <mxCell id="b-1dguzacvtt7dFU3J7i-35" value="" style="endArrow=none;html=1;rounded=0;exitX=0.5;exitY=0;exitDx=0;exitDy=0;" parent="1" source="b-1dguzacvtt7dFU3J7i-13" edge="1">
          <mxGeometry width="50" height="50" relative="1" as="geometry">
            <mxPoint x="1056" y="-582" as="sourcePoint" />
            <mxPoint x="1140" y="-870" as="targetPoint" />
          </mxGeometry>
        </mxCell>
        <mxCell id="b-1dguzacvtt7dFU3J7i-36" value="" style="endArrow=none;html=1;rounded=0;exitX=0.58;exitY=-0.015;exitDx=0;exitDy=0;exitPerimeter=0;entryX=0.25;entryY=1;entryDx=0;entryDy=0;" parent="1" source="b-1dguzacvtt7dFU3J7i-13" target="b-1dguzacvtt7dFU3J7i-38" edge="1">
          <mxGeometry width="50" height="50" relative="1" as="geometry">
            <mxPoint x="1066" y="-572" as="sourcePoint" />
            <mxPoint x="1230" y="-710" as="targetPoint" />
          </mxGeometry>
        </mxCell>
        <mxCell id="b-1dguzacvtt7dFU3J7i-37" value="" style="ellipse;whiteSpace=wrap;html=1;rotation=30;" parent="1" vertex="1">
          <mxGeometry x="1229.82" y="-774.87" width="90.51" height="81.81" as="geometry" />
        </mxCell>
        <mxCell id="b-1dguzacvtt7dFU3J7i-38" value="&lt;font style=&quot;font-size: 18px;&quot;&gt;title&lt;/font&gt;" style="text;html=1;strokeColor=none;fillColor=none;align=center;verticalAlign=middle;whiteSpace=wrap;rounded=0;rotation=20;" parent="1" vertex="1">
          <mxGeometry x="1245" y="-746.1" width="60" height="30" as="geometry" />
        </mxCell>
        <mxCell id="b-1dguzacvtt7dFU3J7i-42" value="" style="endArrow=none;html=1;rounded=0;entryX=0.25;entryY=1;entryDx=0;entryDy=0;" parent="1" target="b-1dguzacvtt7dFU3J7i-44" edge="1">
          <mxGeometry width="50" height="50" relative="1" as="geometry">
            <mxPoint x="1050" y="-600" as="sourcePoint" />
            <mxPoint x="1354" y="-720.13" as="targetPoint" />
            <Array as="points">
              <mxPoint x="1330" y="-690" />
              <mxPoint x="1370" y="-710" />
            </Array>
          </mxGeometry>
        </mxCell>
        <mxCell id="b-1dguzacvtt7dFU3J7i-43" value="" style="ellipse;whiteSpace=wrap;html=1;rotation=30;" parent="1" vertex="1">
          <mxGeometry x="1310.63" y="-784.94" width="177.09" height="81.81" as="geometry" />
        </mxCell>
        <mxCell id="b-1dguzacvtt7dFU3J7i-44" value="&lt;font style=&quot;font-size: 18px;&quot;&gt;numberOfQuestions&lt;/font&gt;" style="text;html=1;strokeColor=none;fillColor=none;align=center;verticalAlign=middle;whiteSpace=wrap;rounded=0;rotation=30;" parent="1" vertex="1">
          <mxGeometry x="1369" y="-756.23" width="60" height="30" as="geometry" />
        </mxCell>
        <mxCell id="b-1dguzacvtt7dFU3J7i-45" value="" style="rhombus;whiteSpace=wrap;html=1;" parent="1" vertex="1">
          <mxGeometry x="700" y="-520" width="80" height="80" as="geometry" />
        </mxCell>
        <mxCell id="b-1dguzacvtt7dFU3J7i-46" value="" style="endArrow=none;html=1;rounded=0;exitX=0.307;exitY=1.071;exitDx=0;exitDy=0;exitPerimeter=0;" parent="1" source="b-1dguzacvtt7dFU3J7i-2" edge="1">
          <mxGeometry width="50" height="50" relative="1" as="geometry">
            <mxPoint x="800" y="-580" as="sourcePoint" />
            <mxPoint x="435" y="-480" as="targetPoint" />
          </mxGeometry>
        </mxCell>
        <mxCell id="b-1dguzacvtt7dFU3J7i-48" value="" style="endArrow=none;html=1;rounded=0;" parent="1" edge="1">
          <mxGeometry width="50" height="50" relative="1" as="geometry">
            <mxPoint x="440" y="-480" as="sourcePoint" />
            <mxPoint x="700" y="-480" as="targetPoint" />
          </mxGeometry>
        </mxCell>
        <mxCell id="b-1dguzacvtt7dFU3J7i-49" value="has" style="text;html=1;strokeColor=none;fillColor=none;align=center;verticalAlign=middle;whiteSpace=wrap;rounded=0;" parent="1" vertex="1">
          <mxGeometry x="710" y="-495" width="60" height="30" as="geometry" />
        </mxCell>
        <mxCell id="b-1dguzacvtt7dFU3J7i-50" value="" style="endArrow=none;html=1;rounded=0;" parent="1" edge="1">
          <mxGeometry width="50" height="50" relative="1" as="geometry">
            <mxPoint x="780" y="-480.62" as="sourcePoint" />
            <mxPoint x="1040" y="-480.62" as="targetPoint" />
          </mxGeometry>
        </mxCell>
        <mxCell id="b-1dguzacvtt7dFU3J7i-53" value="" style="endArrow=none;html=1;rounded=0;entryX=0.5;entryY=1;entryDx=0;entryDy=0;" parent="1" target="b-1dguzacvtt7dFU3J7i-13" edge="1">
          <mxGeometry width="50" height="50" relative="1" as="geometry">
            <mxPoint x="1040" y="-480" as="sourcePoint" />
            <mxPoint x="850" y="-630" as="targetPoint" />
          </mxGeometry>
        </mxCell>
        <mxCell id="b-1dguzacvtt7dFU3J7i-54" value="&lt;font style=&quot;font-size: 24px;&quot;&gt;CATEGORY&lt;/font&gt;" style="text;html=1;strokeColor=none;fillColor=none;align=center;verticalAlign=middle;whiteSpace=wrap;rounded=0;" parent="1" vertex="1">
          <mxGeometry x="440" y="-570" width="60" height="30" as="geometry" />
        </mxCell>
        <mxCell id="b-1dguzacvtt7dFU3J7i-55" value="&lt;font style=&quot;font-size: 24px;&quot;&gt;QUIZ&lt;/font&gt;" style="text;html=1;strokeColor=none;fillColor=none;align=center;verticalAlign=middle;whiteSpace=wrap;rounded=0;" parent="1" vertex="1">
          <mxGeometry x="1011.4499999999999" y="-580" width="60" height="30" as="geometry" />
        </mxCell>
        <mxCell id="b-1dguzacvtt7dFU3J7i-56" value="1" style="text;html=1;strokeColor=none;fillColor=none;align=center;verticalAlign=middle;whiteSpace=wrap;rounded=0;" parent="1" vertex="1">
          <mxGeometry x="600" y="-540" width="60" height="30" as="geometry" />
        </mxCell>
        <mxCell id="b-1dguzacvtt7dFU3J7i-58" value="N" style="text;html=1;strokeColor=none;fillColor=none;align=center;verticalAlign=middle;whiteSpace=wrap;rounded=0;" parent="1" vertex="1">
          <mxGeometry x="882.34" y="-520" width="60" height="30" as="geometry" />
        </mxCell>
        <mxCell id="fPN8DxQVuedwhMm-S-CN-1" value="" style="rounded=0;whiteSpace=wrap;html=1;" vertex="1" parent="1">
          <mxGeometry x="2000" y="-560" width="170" height="65" as="geometry" />
        </mxCell>
        <mxCell id="fPN8DxQVuedwhMm-S-CN-2" value="&lt;font style=&quot;font-size: 24px;&quot;&gt;Question&lt;/font&gt;" style="text;html=1;strokeColor=none;fillColor=none;align=center;verticalAlign=middle;whiteSpace=wrap;rounded=0;" vertex="1" parent="1">
          <mxGeometry x="2055" y="-540" width="60" height="30" as="geometry" />
        </mxCell>
        <mxCell id="fPN8DxQVuedwhMm-S-CN-3" value="" style="ellipse;whiteSpace=wrap;html=1;" vertex="1" parent="1">
          <mxGeometry x="1830" y="-616.94" width="80" height="46.94" as="geometry" />
        </mxCell>
        <mxCell id="fPN8DxQVuedwhMm-S-CN-4" value="" style="endArrow=none;html=1;rounded=0;entryX=0.365;entryY=-0.015;entryDx=0;entryDy=0;entryPerimeter=0;" edge="1" parent="1" target="fPN8DxQVuedwhMm-S-CN-1">
          <mxGeometry width="50" height="50" relative="1" as="geometry">
            <mxPoint x="1910" y="-590" as="sourcePoint" />
            <mxPoint x="1970" y="-570" as="targetPoint" />
          </mxGeometry>
        </mxCell>
        <mxCell id="fPN8DxQVuedwhMm-S-CN-5" value="" style="ellipse;whiteSpace=wrap;html=1;" vertex="1" parent="1">
          <mxGeometry x="1860" y="-670" width="80" height="46.94" as="geometry" />
        </mxCell>
        <mxCell id="fPN8DxQVuedwhMm-S-CN-6" value="" style="ellipse;whiteSpace=wrap;html=1;" vertex="1" parent="1">
          <mxGeometry x="1910" y="-716.94" width="80" height="46.94" as="geometry" />
        </mxCell>
        <mxCell id="fPN8DxQVuedwhMm-S-CN-8" value="" style="ellipse;whiteSpace=wrap;html=1;" vertex="1" parent="1">
          <mxGeometry x="1975" y="-757.4300000000001" width="80" height="46.94" as="geometry" />
        </mxCell>
        <mxCell id="fPN8DxQVuedwhMm-S-CN-9" value="" style="ellipse;whiteSpace=wrap;html=1;" vertex="1" parent="1">
          <mxGeometry x="2060" y="-772.61" width="80" height="46.94" as="geometry" />
        </mxCell>
        <mxCell id="fPN8DxQVuedwhMm-S-CN-10" value="" style="ellipse;whiteSpace=wrap;html=1;" vertex="1" parent="1">
          <mxGeometry x="2160" y="-755" width="90" height="55" as="geometry" />
        </mxCell>
        <mxCell id="fPN8DxQVuedwhMm-S-CN-11" value="" style="ellipse;whiteSpace=wrap;html=1;" vertex="1" parent="1">
          <mxGeometry x="2240" y="-703.1300000000001" width="80" height="46.94" as="geometry" />
        </mxCell>
        <mxCell id="fPN8DxQVuedwhMm-S-CN-12" value="" style="ellipse;whiteSpace=wrap;html=1;" vertex="1" parent="1">
          <mxGeometry x="2280" y="-590" width="100" height="46.94" as="geometry" />
        </mxCell>
        <mxCell id="fPN8DxQVuedwhMm-S-CN-13" value="" style="ellipse;whiteSpace=wrap;html=1;" vertex="1" parent="1">
          <mxGeometry x="2280" y="-646.94" width="80" height="46.94" as="geometry" />
        </mxCell>
        <mxCell id="fPN8DxQVuedwhMm-S-CN-14" value="" style="endArrow=none;html=1;rounded=0;exitX=0.389;exitY=-0.015;exitDx=0;exitDy=0;exitPerimeter=0;" edge="1" parent="1" source="fPN8DxQVuedwhMm-S-CN-1">
          <mxGeometry width="50" height="50" relative="1" as="geometry">
            <mxPoint x="1920" y="-520" as="sourcePoint" />
            <mxPoint x="2190" y="-700" as="targetPoint" />
          </mxGeometry>
        </mxCell>
        <mxCell id="fPN8DxQVuedwhMm-S-CN-16" value="" style="endArrow=none;html=1;rounded=0;exitX=1.001;exitY=0.771;exitDx=0;exitDy=0;exitPerimeter=0;" edge="1" parent="1" source="fPN8DxQVuedwhMm-S-CN-5">
          <mxGeometry width="50" height="50" relative="1" as="geometry">
            <mxPoint x="1920" y="-520" as="sourcePoint" />
            <mxPoint x="2060" y="-560" as="targetPoint" />
          </mxGeometry>
        </mxCell>
        <mxCell id="fPN8DxQVuedwhMm-S-CN-17" value="" style="endArrow=none;html=1;rounded=0;exitX=1;exitY=1;exitDx=0;exitDy=0;" edge="1" parent="1" source="fPN8DxQVuedwhMm-S-CN-6">
          <mxGeometry width="50" height="50" relative="1" as="geometry">
            <mxPoint x="1920" y="-520" as="sourcePoint" />
            <mxPoint x="2060" y="-560" as="targetPoint" />
          </mxGeometry>
        </mxCell>
        <mxCell id="fPN8DxQVuedwhMm-S-CN-18" value="" style="endArrow=none;html=1;rounded=0;entryX=0.371;entryY=0.032;entryDx=0;entryDy=0;entryPerimeter=0;" edge="1" parent="1" target="fPN8DxQVuedwhMm-S-CN-1">
          <mxGeometry width="50" height="50" relative="1" as="geometry">
            <mxPoint x="2020" y="-710" as="sourcePoint" />
            <mxPoint x="1970" y="-570" as="targetPoint" />
          </mxGeometry>
        </mxCell>
        <mxCell id="fPN8DxQVuedwhMm-S-CN-19" value="" style="endArrow=none;html=1;rounded=0;exitX=0.359;exitY=0.048;exitDx=0;exitDy=0;exitPerimeter=0;" edge="1" parent="1" source="fPN8DxQVuedwhMm-S-CN-1">
          <mxGeometry width="50" height="50" relative="1" as="geometry">
            <mxPoint x="1920" y="-520" as="sourcePoint" />
            <mxPoint x="2100" y="-720" as="targetPoint" />
          </mxGeometry>
        </mxCell>
        <mxCell id="fPN8DxQVuedwhMm-S-CN-20" value="" style="endArrow=none;html=1;rounded=0;entryX=0;entryY=1;entryDx=0;entryDy=0;exitX=0.395;exitY=0.017;exitDx=0;exitDy=0;exitPerimeter=0;" edge="1" parent="1" source="fPN8DxQVuedwhMm-S-CN-1" target="fPN8DxQVuedwhMm-S-CN-11">
          <mxGeometry width="50" height="50" relative="1" as="geometry">
            <mxPoint x="1920" y="-520" as="sourcePoint" />
            <mxPoint x="1970" y="-570" as="targetPoint" />
          </mxGeometry>
        </mxCell>
        <mxCell id="fPN8DxQVuedwhMm-S-CN-21" value="" style="endArrow=none;html=1;rounded=0;entryX=0;entryY=0.5;entryDx=0;entryDy=0;exitX=0.408;exitY=0.064;exitDx=0;exitDy=0;exitPerimeter=0;" edge="1" parent="1" source="fPN8DxQVuedwhMm-S-CN-1" target="fPN8DxQVuedwhMm-S-CN-12">
          <mxGeometry width="50" height="50" relative="1" as="geometry">
            <mxPoint x="1920" y="-520" as="sourcePoint" />
            <mxPoint x="1970" y="-570" as="targetPoint" />
          </mxGeometry>
        </mxCell>
        <mxCell id="fPN8DxQVuedwhMm-S-CN-22" value="" style="endArrow=none;html=1;rounded=0;entryX=-0.057;entryY=0.826;entryDx=0;entryDy=0;entryPerimeter=0;exitX=0.408;exitY=-0.062;exitDx=0;exitDy=0;exitPerimeter=0;" edge="1" parent="1" source="fPN8DxQVuedwhMm-S-CN-1" target="fPN8DxQVuedwhMm-S-CN-13">
          <mxGeometry width="50" height="50" relative="1" as="geometry">
            <mxPoint x="1920" y="-520" as="sourcePoint" />
            <mxPoint x="1970" y="-570" as="targetPoint" />
          </mxGeometry>
        </mxCell>
        <mxCell id="fPN8DxQVuedwhMm-S-CN-23" value="&lt;font style=&quot;font-size: 18px;&quot;&gt;&lt;u&gt;qid&lt;/u&gt;&lt;/font&gt;" style="text;html=1;strokeColor=none;fillColor=none;align=center;verticalAlign=middle;whiteSpace=wrap;rounded=0;" vertex="1" parent="1">
          <mxGeometry x="1840" y="-610" width="60" height="30" as="geometry" />
        </mxCell>
        <mxCell id="fPN8DxQVuedwhMm-S-CN-24" value="&lt;font style=&quot;font-size: 18px;&quot;&gt;&lt;u&gt;quesId&lt;/u&gt;&lt;/font&gt;" style="text;html=1;strokeColor=none;fillColor=none;align=center;verticalAlign=middle;whiteSpace=wrap;rounded=0;" vertex="1" parent="1">
          <mxGeometry x="1920" y="-708.47" width="60" height="30" as="geometry" />
        </mxCell>
        <mxCell id="fPN8DxQVuedwhMm-S-CN-25" value="&lt;font style=&quot;font-size: 18px;&quot;&gt;answer&lt;/font&gt;" style="text;html=1;strokeColor=none;fillColor=none;align=center;verticalAlign=middle;whiteSpace=wrap;rounded=0;" vertex="1" parent="1">
          <mxGeometry x="1880" y="-656.19" width="50" height="30" as="geometry" />
        </mxCell>
        <mxCell id="fPN8DxQVuedwhMm-S-CN-26" value="&lt;font style=&quot;font-size: 18px;&quot;&gt;Content&lt;/font&gt;" style="text;html=1;strokeColor=none;fillColor=none;align=center;verticalAlign=middle;whiteSpace=wrap;rounded=0;" vertex="1" parent="1">
          <mxGeometry x="1990" y="-746.94" width="50" height="30" as="geometry" />
        </mxCell>
        <mxCell id="fPN8DxQVuedwhMm-S-CN-27" value="&lt;font style=&quot;font-size: 18px;&quot;&gt;image&lt;/font&gt;" style="text;html=1;strokeColor=none;fillColor=none;align=center;verticalAlign=middle;whiteSpace=wrap;rounded=0;" vertex="1" parent="1">
          <mxGeometry x="2075" y="-764.1400000000001" width="50" height="30" as="geometry" />
        </mxCell>
        <mxCell id="fPN8DxQVuedwhMm-S-CN-28" value="&lt;font style=&quot;font-size: 18px;&quot;&gt;option1&lt;/font&gt;" style="text;html=1;strokeColor=none;fillColor=none;align=center;verticalAlign=middle;whiteSpace=wrap;rounded=0;" vertex="1" parent="1">
          <mxGeometry x="2180" y="-742.5" width="50" height="30" as="geometry" />
        </mxCell>
        <mxCell id="fPN8DxQVuedwhMm-S-CN-29" value="&lt;font style=&quot;font-size: 18px;&quot;&gt;option2&lt;/font&gt;" style="text;html=1;strokeColor=none;fillColor=none;align=center;verticalAlign=middle;whiteSpace=wrap;rounded=0;" vertex="1" parent="1">
          <mxGeometry x="2255" y="-694.66" width="50" height="30" as="geometry" />
        </mxCell>
        <mxCell id="fPN8DxQVuedwhMm-S-CN-30" value="&lt;font style=&quot;font-size: 18px;&quot;&gt;option3&lt;/font&gt;" style="text;html=1;strokeColor=none;fillColor=none;align=center;verticalAlign=middle;whiteSpace=wrap;rounded=0;" vertex="1" parent="1">
          <mxGeometry x="2295" y="-640" width="50" height="30" as="geometry" />
        </mxCell>
        <mxCell id="fPN8DxQVuedwhMm-S-CN-35" value="&lt;font style=&quot;font-size: 18px;&quot;&gt;option4&lt;/font&gt;" style="text;html=1;strokeColor=none;fillColor=none;align=center;verticalAlign=middle;whiteSpace=wrap;rounded=0;" vertex="1" parent="1">
          <mxGeometry x="2305" y="-590" width="50" height="30" as="geometry" />
        </mxCell>
        <mxCell id="fPN8DxQVuedwhMm-S-CN-36" value="" style="rhombus;whiteSpace=wrap;html=1;" vertex="1" parent="1">
          <mxGeometry x="1470" y="-390" width="210" height="180" as="geometry" />
        </mxCell>
        <mxCell id="fPN8DxQVuedwhMm-S-CN-37" value="" style="endArrow=none;html=1;rounded=0;exitX=0.5;exitY=1;exitDx=0;exitDy=0;entryX=0;entryY=0.5;entryDx=0;entryDy=0;" edge="1" parent="1" source="b-1dguzacvtt7dFU3J7i-13" target="fPN8DxQVuedwhMm-S-CN-36">
          <mxGeometry width="50" height="50" relative="1" as="geometry">
            <mxPoint x="1380" y="-400" as="sourcePoint" />
            <mxPoint x="1430" y="-450" as="targetPoint" />
          </mxGeometry>
        </mxCell>
        <mxCell id="fPN8DxQVuedwhMm-S-CN-38" value="&lt;font style=&quot;font-size: 24px;&quot;&gt;has&lt;/font&gt;" style="text;html=1;strokeColor=none;fillColor=none;align=center;verticalAlign=middle;whiteSpace=wrap;rounded=0;" vertex="1" parent="1">
          <mxGeometry x="1530" y="-320" width="60" height="30" as="geometry" />
        </mxCell>
        <mxCell id="fPN8DxQVuedwhMm-S-CN-39" value="" style="endArrow=none;html=1;rounded=0;exitX=1;exitY=0.5;exitDx=0;exitDy=0;" edge="1" parent="1" source="fPN8DxQVuedwhMm-S-CN-36">
          <mxGeometry width="50" height="50" relative="1" as="geometry">
            <mxPoint x="1380" y="-570" as="sourcePoint" />
            <mxPoint x="2102.2220865885415" y="-490" as="targetPoint" />
          </mxGeometry>
        </mxCell>
        <mxCell id="fPN8DxQVuedwhMm-S-CN-40" value="&lt;font style=&quot;font-size: 36px;&quot;&gt;1&lt;/font&gt;" style="text;html=1;strokeColor=none;fillColor=none;align=center;verticalAlign=middle;whiteSpace=wrap;rounded=0;" vertex="1" parent="1">
          <mxGeometry x="1300" y="-440" width="60" height="30" as="geometry" />
        </mxCell>
        <mxCell id="fPN8DxQVuedwhMm-S-CN-43" value="&lt;font style=&quot;font-size: 36px;&quot;&gt;n&lt;/font&gt;" style="text;html=1;strokeColor=none;fillColor=none;align=center;verticalAlign=middle;whiteSpace=wrap;rounded=0;" vertex="1" parent="1">
          <mxGeometry x="1830" y="-430" width="60" height="30" as="geometry" />
        </mxCell>
      </root>
    </mxGraphModel>
  </diagram>
</mxfile>
